<svg width="62" height="62" viewBox="0 0 62 62" fill="none" xmlns="http://www.w3.org/2000/svg">
<rect width="62" height="62" rx="31" fill="url(#paint0_linear_218_622)"/>
<path d="M45.4 16H16.6C14.6146 16 13 17.6336 13 19.6424V41.497C13 43.5058 14.6146 45.1395 16.6 45.1395H22V52L33.2986 45.1395H45.4C47.3854 45.1395 49 43.5058 49 41.497V19.6424C49 17.6336 47.3854 16 45.4 16ZM45.4 41.497H32.3014L25.6 45.5638V41.497H16.6V19.6424H45.4V41.497Z" fill="white"/>
<path d="M29 23H33V32.375H29V23ZM29 34.25H33V38H29V34.25Z" fill="white"/>
<defs>
<linearGradient id="paint0_linear_218_622" x1="53.5" y1="10" x2="10" y2="53.5" gradientUnits="userSpaceOnUse">
<stop stop-color="#FF3200"/>
<stop offset="1" stop-color="#FF8263"/>
</linearGradient>
</defs>
</svg>
