<svg width="62" height="62" viewBox="0 0 62 62" fill="none" xmlns="http://www.w3.org/2000/svg">
<rect width="62" height="62" rx="31" fill="url(#paint0_linear_218_616)"/>
<path fill-rule="evenodd" clip-rule="evenodd" d="M43.2125 50.0341C44.0459 49.2633 44.5909 47.6545 44.6983 46.6841C45.9399 45.9154 47.4088 44.3654 47.5371 41.4459C49.7531 39.9106 51.4367 37.071 49.3343 32.9186C50.5549 31.7845 51.9165 28.3232 50.1656 25.5339C48.1264 22.2742 43.6945 22.0474 39.2772 22.6292C40.4557 19.3422 40.8977 16.3093 39.0331 13.203C37.1791 10.4474 34.6201 10 33.7447 10C31.3499 10 29.7084 12.0562 29.0434 14.795C28.8014 15.5595 28.5257 17.3658 28.4184 17.8405C27.8607 20.8649 25.9857 23.2845 22.7995 25.0929C21.3821 25.9055 19.8851 26.5712 18.3318 27.0798H13.4075C12.3111 27.0798 11 28.1866 11 29.5266V45.5646C11.1557 47.0811 11.9996 47.8372 13.5295 47.8372H20.0743C22.9448 48.4883 25.8068 49.1856 28.6583 49.927C31.413 50.6684 32.017 50.9142 33.9446 51.4434C38.265 52.5608 41.2638 51.9475 43.2125 50.0362V50.0341ZM38.1998 49.1436C36.4762 49.1436 34.294 48.6143 33.3259 48.3056C32.985 48.1984 32.3873 48.022 31.7581 47.8414L31.1268 47.6587L30.5207 47.4864L29.3422 47.1546C29.3422 47.1546 26.375 46.3607 20.5604 45.0123C20.3437 44.9871 20.2279 44.9703 20.2111 44.9661V29.4657C23.3909 28.2433 25.8678 26.7605 27.6397 25.0173C30.2997 22.4045 31.0384 20.0437 31.474 17.0214C31.7223 15.5028 32.1243 14.2783 32.7304 13.4403C32.9044 13.1892 33.1579 13.0036 33.4501 12.9131C33.7594 12.8144 34.1866 12.8081 35.0978 13.2996C36.0091 13.7953 37.1812 15.0912 37.4022 17.0214C37.5495 18.8969 37.0444 20.5226 36.3668 22.2322C36.1329 22.8147 35.8824 23.3905 35.6155 23.9587C35.1568 24.8261 35.847 26.2669 37.2696 25.954C39.1762 25.4184 43.907 24.6938 46.5754 25.954C48.1264 26.8508 48.5115 28.298 47.7265 30.2933C47.467 30.7507 47.1117 31.1468 46.6848 31.4547C46.3271 31.669 45.6284 32.5973 46.4681 33.6496C47.3014 34.9833 48.5199 37.699 45.4369 39.3918C45.2218 39.5098 45.042 39.683 44.9163 39.8934C44.7905 40.1039 44.7232 40.344 44.7214 40.589C44.6793 41.1645 44.7719 43.2984 43.1852 44.2519C42.8064 44.4557 42.3497 44.6237 42.0909 45.1131C41.9267 45.4365 41.8741 46.222 41.8741 46.222C41.6574 47.5494 41.3585 48.7886 38.1998 49.1436ZM17.3533 44.9745H13.8641V29.9425H17.3533V44.9745Z" fill="white"/>
<defs>
<linearGradient id="paint0_linear_218_616" x1="56" y1="12.5" x2="7.5" y2="53" gradientUnits="userSpaceOnUse">
<stop stop-color="#0AE1FF"/>
<stop offset="1" stop-color="#76EEFF"/>
</linearGradient>
</defs>
</svg>
